<?xml version="1.0" standalone="no"?>
<!DOCTYPE svg PUBLIC "-//W3C//DTD SVG 20010904//EN"
 "http://www.w3.org/TR/2001/REC-SVG-20010904/DTD/svg10.dtd">
<svg version="1.0" xmlns="http://www.w3.org/2000/svg"
 width="500.000000pt" height="200.000000pt" viewBox="0 0 500.000000 200.000000"
 preserveAspectRatio="xMidYMid meet">

<g transform="translate(0.000000,200.000000) scale(0.100000,-0.100000)"
fill="#000000" stroke="none">
<path d="M0 1000 l0 -1000 2500 0 2500 0 0 1000 0 1000 -2500 0 -2500 0 0
-1000z m2901 492 c88 -29 136 -82 146 -160 l6 -52 -57 0 c-53 0 -56 1 -56 24
0 49 -19 77 -66 97 -43 19 -62 20 -302 17 -280 -4 -320 -11 -362 -66 -26 -32
-28 -136 -4 -171 34 -47 70 -54 354 -62 146 -4 288 -12 315 -18 78 -18 127
-50 153 -101 20 -39 23 -56 20 -135 -4 -106 -22 -144 -83 -187 -77 -53 -143
-63 -420 -63 -268 0 -330 9 -398 57 -36 26 -66 90 -67 141 l0 38 52 -3 c52 -3
53 -3 59 -40 13 -85 53 -100 284 -106 284 -7 405 16 446 82 22 36 26 134 7
169 -31 59 -70 67 -378 77 -277 9 -338 17 -391 53 -59 40 -74 70 -78 158 -7
158 42 215 214 255 76 17 550 14 606 -4z m-2683 -49 l3 -53 -55 0 -56 0 0 56
0 55 53 -3 52 -3 3 -52z m1290 -75 l3 -88 199 0 200 0 0 -45 0 -45 -200 0
-200 0 0 -200 c0 -124 4 -208 11 -223 16 -36 50 -47 142 -47 135 0 175 34 176
153 l1 47 46 0 47 0 -6 -72 c-13 -150 -74 -206 -235 -216 -154 -8 -237 23
-273 102 -16 36 -19 68 -19 249 l0 207 -70 0 -70 0 0 45 0 45 70 0 70 0 0 91
0 90 53 -3 52 -3 3 -87z m-522 -93 c72 -21 126 -64 155 -121 22 -45 24 -61 24
-194 0 -132 -2 -149 -23 -193 -52 -104 -127 -137 -328 -144 -243 -9 -348 29
-402 145 -25 53 -27 67 -27 192 0 128 2 138 28 192 42 86 100 119 252 142 58
9 270 -4 321 -19z m2776 -5 c71 -26 101 -50 133 -104 26 -45 49 -170 39 -212
l-6 -24 -320 0 -321 0 6 -66 c6 -77 25 -110 83 -139 34 -17 59 -20 199 -20
140 0 165 2 200 20 29 15 42 29 49 53 9 31 11 32 62 32 l54 0 -6 -32 c-22
-117 -115 -158 -355 -158 -190 0 -275 24 -337 94 -48 55 -65 129 -60 260 9
213 77 291 283 320 74 11 241 -3 297 -24z m916 5 c89 -27 142 -91 142 -172 0
-21 -5 -23 -55 -23 -52 0 -55 1 -55 26 0 39 -18 64 -57 81 -49 20 -231 28
-323 14 -129 -20 -152 -51 -158 -215 -9 -247 25 -281 288 -281 127 0 151 3
192 22 47 21 53 31 60 93 3 23 8 25 57 28 l54 3 -6 -51 c-17 -141 -119 -186
-402 -177 -256 8 -320 51 -346 234 -13 89 -5 217 17 285 26 82 96 129 218 149
79 12 313 3 374 -16z m-4458 -320 l0 -325 -55 0 -55 0 0 325 0 325 55 0 55 0
0 -325z m4264 -385 c16 -6 27 -6 31 0 10 17 27 11 23 -7 -3 -15 -14 -18 -66
-19 -64 0 -71 3 -50 24 15 15 29 15 62 2z m-4233 -10 c10 -6 19 -20 19 -30 0
-25 -5 -25 -30 0 -16 16 -33 20 -86 20 -77 0 -104 -12 -104 -45 0 -29 12 -33
117 -37 83 -4 106 -19 106 -69 0 -40 -20 -55 -86 -63 -92 -11 -166 11 -167 52
0 20 27 14 33 -8 5 -18 14 -20 85 -20 82 0 112 12 112 44 0 24 -24 33 -108 39
-103 8 -122 17 -122 62 0 51 27 65 128 65 46 0 92 -5 103 -10z m2506 -103 c35
-60 63 -110 63 -113 0 -2 -7 -4 -15 -4 -9 0 -21 11 -27 25 -11 24 -15 25 -105
25 -90 0 -94 -1 -105 -25 -6 -14 -19 -25 -29 -25 -15 0 -5 23 49 115 53 91 71
115 86 113 13 -2 41 -40 83 -111z m391 75 c3 -19 10 -22 53 -22 27 0 49 -4 49
-10 0 -5 -22 -10 -50 -10 l-50 0 0 -60 c0 -45 4 -62 15 -66 26 -10 63 5 67 26
4 26 22 31 26 8 5 -25 -34 -58 -69 -58 -58 0 -69 14 -69 85 0 58 -2 65 -20 65
-11 0 -20 5 -20 10 0 6 9 10 20 10 15 0 20 7 20 26 0 31 23 28 28 -4z m-2695
-23 c26 -7 41 -18 47 -35 20 -51 16 -54 -75 -54 -75 0 -85 -2 -85 -18 0 -30
22 -42 77 -42 38 0 55 4 59 15 7 16 34 21 34 6 0 -27 -34 -41 -96 -41 -80 0
-104 19 -104 83 0 51 15 74 55 86 41 12 44 12 88 0z m275 0 c21 1 22 -2 22
-94 0 -122 -10 -135 -103 -135 -39 0 -71 5 -83 14 -24 18 -10 34 16 18 40 -25
140 -10 140 21 0 9 -20 11 -69 9 -53 -3 -72 0 -85 13 -23 23 -30 62 -20 104 7
29 16 38 44 48 20 7 52 10 75 7 22 -4 50 -6 63 -5z m460 -17 c6 -9 12 -19 12
-24 0 -14 -28 -9 -34 7 -6 17 -71 21 -95 6 -8 -5 -15 -35 -18 -75 -8 -95 -23
-82 -23 20 0 70 3 85 14 81 8 -3 27 -2 43 3 36 11 85 2 101 -18z m174 18 c42
-12 47 -22 55 -107 5 -54 4 -63 -11 -63 -9 0 -16 5 -16 12 0 9 -3 9 -12 0 -15
-15 -112 -16 -139 -2 -12 7 -19 21 -19 41 0 39 35 53 113 45 31 -3 57 -4 57
-1 0 2 -4 15 -10 29 -9 24 -15 26 -65 26 -30 0 -55 -4 -55 -10 0 -5 -7 -10
-15 -10 -26 0 -16 29 13 36 15 3 32 7 37 9 18 6 29 5 67 -5z m276 -18 c7 -9
12 -45 12 -84 0 -54 -3 -68 -15 -68 -12 0 -15 14 -15 63 0 36 -5 68 -12 75
-18 18 -94 15 -112 -4 -11 -10 -16 -34 -16 -75 0 -46 -3 -59 -15 -59 -12 0
-15 16 -15 85 0 69 3 85 15 85 8 0 15 -4 15 -9 0 -5 17 -2 38 5 44 16 102 10
120 -14z m434 18 c42 -12 58 -45 58 -121 0 -37 -4 -49 -15 -49 -8 0 -15 5 -15
12 0 9 -3 9 -12 0 -15 -15 -112 -16 -139 -2 -12 7 -19 21 -19 41 0 39 35 53
113 45 60 -6 66 -1 47 35 -8 14 -21 19 -55 19 -25 0 -54 -5 -65 -12 -23 -15
-37 -4 -21 16 11 13 23 17 76 24 6 1 26 -3 47 -8z m330 -18 c9 -9 20 -29 23
-44 l7 -28 -86 0 c-76 0 -86 -2 -86 -18 0 -10 5 -23 12 -30 18 -18 98 -15 120
5 22 19 37 9 22 -15 -16 -24 -127 -29 -160 -7 -20 13 -24 24 -24 63 0 79 34
106 120 95 19 -2 43 -12 52 -21z m1040 18 c21 -6 42 -19 48 -30 20 -38 7 -112
-24 -132 -14 -10 -128 -10 -142 0 -32 21 -45 103 -21 135 22 31 81 43 139 27z
m256 -12 c8 -7 17 -6 27 2 23 19 101 18 120 -1 10 -10 18 -42 22 -87 5 -63 4
-72 -11 -72 -13 0 -16 11 -16 56 0 76 -11 94 -60 94 -55 0 -70 -19 -70 -91 0
-45 -3 -59 -15 -59 -11 0 -15 17 -17 73 l-3 72 -43 3 c-61 4 -72 -8 -72 -84 0
-50 -3 -64 -15 -64 -12 0 -15 16 -15 85 0 69 3 85 15 85 8 0 15 -5 15 -11 0
-8 4 -8 13 -1 27 22 96 22 125 0z m384 -5 c14 -12 18 -32 18 -83 l0 -68 -83
-1 c-72 -1 -86 1 -102 19 -15 16 -16 24 -7 45 13 28 62 41 122 31 34 -5 40 -4
40 12 0 10 -5 23 -12 30 -14 14 -104 16 -113 2 -3 -5 -13 -10 -21 -10 -26 0 3
38 33 43 44 8 106 -3 125 -20z m440 17 c42 -12 58 -45 58 -121 0 -37 -4 -49
-15 -49 -8 0 -15 5 -15 12 0 9 -3 9 -12 0 -15 -15 -112 -16 -139 -2 -28 15
-24 56 6 76 20 13 39 15 85 11 63 -7 69 -3 50 34 -8 14 -21 19 -55 19 -25 0
-54 -5 -65 -12 -23 -15 -37 -4 -21 16 11 13 23 17 76 24 6 1 26 -3 47 -8z
m240 0 c21 -6 42 -19 48 -30 20 -38 7 -112 -24 -132 -14 -10 -128 -10 -142 0
-32 21 -45 103 -21 135 22 31 81 43 139 27z m-3942 -63 c0 -74 10 -87 63 -87
66 0 77 12 77 85 0 51 3 65 15 65 12 0 15 -16 15 -85 0 -69 -3 -85 -15 -85 -8
0 -15 5 -15 10 0 7 -6 7 -19 0 -31 -16 -112 -12 -133 7 -24 22 -27 153 -3 153
12 0 15 -14 15 -63z m1019 53 c35 -10 51 -25 51 -47 0 -21 -27 -15 -33 7 -4
17 -14 20 -59 20 -63 0 -78 -11 -78 -60 0 -47 15 -60 66 -60 52 0 74 8 74 26
0 8 7 14 15 14 8 0 15 -6 15 -14 0 -24 -29 -46 -61 -46 -31 0 -39 -14 -14 -24
22 -8 18 -44 -6 -51 -22 -7 -43 5 -21 12 6 3 12 9 12 14 0 18 -35 49 -57 49
-46 0 -71 90 -38 137 21 31 76 40 134 23z m1041 -49 c0 -73 15 -91 74 -91 56
0 69 16 74 91 7 89 22 71 22 -26 0 -76 -10 -108 -23 -72 -4 10 -7 10 -18 0
-18 -17 -111 -16 -134 1 -27 19 -36 156 -11 156 13 0 16 -11 16 -59z m1409 49
c35 -10 51 -25 51 -47 0 -21 -27 -15 -33 7 -4 17 -14 20 -59 20 -63 0 -78 -11
-78 -60 0 -47 15 -60 66 -60 52 0 74 8 74 26 0 8 7 14 15 14 8 0 15 -6 15 -14
0 -24 -29 -46 -61 -46 -31 0 -39 -14 -14 -24 22 -8 18 -44 -6 -51 -22 -7 -43
5 -21 12 6 3 12 9 12 14 0 18 -35 49 -57 49 -46 0 -71 90 -38 137 21 31 76 40
134 23z"/>
<path d="M633 1200 c-117 -25 -138 -62 -138 -250 0 -162 10 -190 83 -223 41
-19 66 -21 192 -22 170 0 226 15 258 68 28 46 33 79 33 195 0 89 -3 111 -23
150 -35 70 -71 84 -231 88 -73 2 -151 -1 -174 -6z"/>
<path d="M3426 1199 c-86 -14 -136 -72 -136 -156 l0 -43 271 0 271 0 -7 47
c-14 95 -56 138 -152 153 -68 12 -178 11 -247 -1z"/>
<path d="M2647 503 c-55 -88 -57 -83 23 -83 38 0 70 2 70 5 0 8 -61 115 -66
115 -2 0 -14 -17 -27 -37z"/>
<path d="M352 478 c-28 -28 -13 -38 58 -38 51 0 70 4 70 13 0 24 -24 37 -70
37 -25 0 -51 -5 -58 -12z"/>
<path d="M582 478 c-7 -7 -12 -30 -12 -53 0 -53 13 -65 75 -65 62 0 75 12 75
65 0 23 -5 46 -12 53 -16 16 -110 16 -126 0z"/>
<path d="M1247 396 c-9 -23 15 -36 68 -36 53 0 77 13 68 36 -7 20 -129 20
-136 0z"/>
<path d="M1962 388 c3 -20 10 -23 59 -26 40 -2 59 1 68 12 21 26 2 36 -65 36
-62 0 -65 -1 -62 -22z"/>
<path d="M2273 483 c-7 -2 -13 -13 -13 -24 0 -17 8 -19 70 -19 72 0 82 7 54
34 -15 15 -83 21 -111 9z"/>
<path d="M3332 478 c-16 -16 -16 -90 0 -106 7 -7 36 -12 65 -12 59 0 73 14 73
72 0 46 -15 58 -75 58 -28 0 -56 -5 -63 -12z"/>
<path d="M3934 395 c-11 -27 10 -36 72 -33 51 3 59 6 59 23 0 18 -8 20 -63 23
-50 2 -63 0 -68 -13z"/>
<path d="M4412 388 c3 -20 10 -23 59 -26 40 -2 59 1 68 12 21 26 2 36 -65 36
-62 0 -65 -1 -62 -22z"/>
<path d="M4652 478 c-16 -16 -16 -90 0 -106 7 -7 36 -12 65 -12 59 0 73 14 73
72 0 46 -15 58 -75 58 -28 0 -56 -5 -63 -12z"/>
</g>
</svg>
