<?xml version="1.0" standalone="no"?>
<!DOCTYPE svg PUBLIC "-//W3C//DTD SVG 20010904//EN"
 "http://www.w3.org/TR/2001/REC-SVG-20010904/DTD/svg10.dtd">
<svg version="1.0" xmlns="http://www.w3.org/2000/svg"
 width="500.000000pt" height="200.000000pt" viewBox="0 0 500.000000 200.000000"
 preserveAspectRatio="xMidYMid meet">

<g transform="translate(0.000000,200.000000) scale(0.100000,-0.100000)"
fill="#FFFFFF" stroke="none">
<path d="M2295 1496 c-172 -40 -221 -97 -214 -255 4 -88 19 -118 78 -158 52
-36 113 -44 391 -53 308 -10 347 -18 378 -77 19 -35 15 -133 -7 -169 -41 -66
-162 -89 -446 -82 -231 6 -271 21 -284 106 -6 37 -7 37 -59 40 l-52 3 0 -38
c0 -21 10 -59 23 -83 17 -36 33 -51 77 -72 82 -41 174 -51 415 -45 231 5 301
17 370 65 61 43 79 81 83 187 3 79 0 96 -20 135 -26 51 -75 83 -153 101 -27 6
-169 14 -315 18 -284 8 -320 15 -354 62 -24 35 -22 139 4 171 43 55 82 62 362
66 240 3 260 2 302 -17 47 -20 66 -48 66 -97 0 -23 3 -24 56 -24 l57 0 -6 52
c-10 78 -58 131 -146 160 -56 18 -530 21 -606 4z"/>
<path d="M110 1446 l0 -56 56 0 55 0 -3 53 -3 52 -52 3 -53 3 0 -55z"/>
<path d="M1400 1371 l0 -91 -70 0 -70 0 0 -45 0 -45 69 0 70 0 3 -217 c3 -250
9 -268 89 -313 40 -23 55 -25 164 -25 109 0 125 2 170 25 64 33 93 88 102 188
l6 72 -47 0 -46 0 -1 -47 c-1 -119 -41 -153 -176 -153 -92 0 -126 11 -142 47
-7 15 -11 99 -11 223 l0 200 200 0 200 0 0 45 0 45 -200 0 -199 0 -3 88 -3 87
-52 3 -53 3 0 -90z"/>
<path d="M635 1290 c-123 -19 -188 -62 -229 -150 -18 -38 -21 -65 -21 -180 0
-128 1 -138 28 -193 56 -114 129 -142 367 -142 197 0 249 13 315 80 60 60 70
96 70 255 0 121 -2 140 -24 189 -29 62 -79 104 -155 126 -62 19 -269 27 -351
15z m341 -106 c63 -31 85 -87 85 -216 0 -116 -5 -149 -33 -195 -32 -53 -88
-68 -258 -68 -169 1 -224 17 -257 77 -27 49 -26 286 1 341 34 69 101 88 292
83 104 -3 140 -7 170 -22z"/>
<path d="M3465 1294 c-206 -29 -274 -107 -283 -320 -5 -131 12 -205 60 -260
62 -70 147 -94 337 -94 240 0 333 41 355 158 l6 32 -54 0 c-51 0 -53 -1 -62
-32 -7 -24 -20 -38 -49 -53 -35 -18 -60 -20 -200 -20 -140 0 -165 3 -199 20
-58 29 -77 62 -83 139 l-6 66 321 0 320 0 6 24 c3 14 1 58 -4 97 -24 169 -117
237 -330 244 -58 2 -118 1 -135 -1z m208 -94 c96 -15 138 -58 152 -153 l7 -47
-272 0 -272 0 4 60 c4 61 26 97 72 122 47 25 209 35 309 18z"/>
<path d="M4304 1291 c-124 -20 -194 -68 -218 -151 -22 -74 -29 -196 -17 -283
26 -183 90 -226 346 -234 283 -9 385 36 402 177 l6 51 -54 -3 c-49 -3 -54 -5
-57 -28 -7 -62 -13 -72 -60 -93 -41 -19 -66 -21 -187 -22 -272 0 -305 33 -293
300 7 149 28 175 158 196 92 14 273 6 323 -14 39 -17 57 -42 57 -81 0 -25 3
-26 55 -26 50 0 55 2 55 23 0 81 -53 145 -142 172 -61 19 -295 28 -374 16z"/>
<path d="M110 955 l0 -325 55 0 55 0 0 325 0 325 -55 0 -55 0 0 -325z"/>
<path d="M4422 568 c-21 -21 -14 -24 50 -24 52 1 63 4 66 19 4 18 -13 24 -23
7 -4 -6 -15 -6 -31 0 -33 13 -47 13 -62 -2z"/>
<path d="M42 554 c-29 -20 -31 -79 -2 -94 11 -6 57 -13 102 -17 84 -6 108 -15
108 -39 0 -32 -30 -44 -112 -44 -71 0 -80 2 -85 20 -6 22 -33 28 -33 8 1 -41
75 -63 167 -52 66 8 84 21 85 62 2 51 -21 66 -105 70 -105 4 -117 8 -117 37 0
33 27 45 104 45 53 0 70 -4 86 -20 25 -25 30 -25 30 0 0 30 -31 40 -122 40
-59 0 -90 -4 -106 -16z"/>
<path d="M2588 455 c-54 -92 -64 -115 -49 -115 10 0 23 11 29 25 11 24 15 25
105 25 90 0 94 -1 105 -25 6 -14 18 -25 27 -25 8 0 15 2 15 4 0 3 -28 53 -63
113 -42 71 -70 109 -83 111 -15 2 -33 -22 -86 -113z m121 30 c17 -30 31 -57
31 -60 0 -3 -32 -5 -70 -5 l-71 0 33 60 c18 33 36 60 40 60 3 0 20 -25 37 -55z"/>
<path d="M3120 536 c0 -19 -5 -26 -20 -26 -11 0 -20 -4 -20 -10 0 -5 9 -10 20
-10 18 0 20 -7 20 -65 0 -71 11 -85 69 -85 35 0 74 33 69 58 -4 23 -22 18 -26
-8 -4 -21 -41 -36 -67 -26 -11 4 -15 21 -15 66 l0 60 50 0 c28 0 50 5 50 10 0
6 -22 10 -49 10 -43 0 -50 3 -53 22 -5 32 -28 35 -28 4z"/>
<path d="M365 509 c-40 -12 -55 -35 -55 -86 0 -64 24 -83 104 -83 62 0 96 14
96 41 0 15 -27 10 -34 -6 -4 -11 -21 -15 -59 -15 -55 0 -77 12 -77 42 0 16 10
18 85 18 91 0 95 3 75 54 -6 17 -21 28 -47 35 -44 12 -47 12 -88 0z m103 -31
c28 -28 13 -38 -58 -38 -51 0 -70 4 -70 13 0 24 24 37 70 37 25 0 51 -5 58
-12z"/>
<path d="M602 510 c-19 -4 -38 -12 -43 -17 -17 -17 -22 -82 -9 -113 15 -35 38
-43 115 -38 38 2 55 -1 55 -9 0 -31 -100 -46 -140 -21 -26 16 -40 0 -16 -18
12 -9 44 -14 83 -14 93 0 103 13 103 135 0 92 -1 95 -22 93 -13 0 -39 2 -58 5
-19 3 -50 2 -68 -3z m106 -32 c7 -7 12 -30 12 -53 0 -53 -13 -65 -75 -65 -62
0 -75 12 -75 65 0 23 5 46 12 53 16 16 110 16 126 0z"/>
<path d="M1108 514 c-4 -3 -23 -6 -42 -6 l-36 0 0 -84 c0 -68 3 -84 15 -84 12
0 15 14 15 69 0 76 4 81 66 81 22 0 37 -6 40 -15 6 -16 34 -21 34 -7 0 28 -74
65 -92 46z"/>
<path d="M1295 515 c-5 -2 -22 -6 -37 -9 -29 -7 -39 -36 -13 -36 8 0 15 5 15
10 0 6 25 10 55 10 50 0 56 -2 65 -26 6 -14 10 -27 10 -29 0 -3 -26 -2 -57 1
-78 8 -113 -6 -113 -45 0 -20 7 -34 19 -41 27 -14 124 -13 139 2 9 9 12 9 12
0 0 -7 7 -12 16 -12 15 0 16 9 11 67 -5 45 -13 73 -24 84 -17 17 -78 32 -98
24z m88 -119 c9 -23 -15 -36 -69 -36 -52 0 -83 18 -69 40 10 16 132 13 138 -4z"/>
<path d="M1518 506 c-21 -8 -38 -10 -38 -5 0 5 -7 9 -15 9 -12 0 -15 -16 -15
-85 0 -69 3 -85 15 -85 12 0 15 13 15 59 0 72 15 91 70 91 66 0 70 -4 70 -81
0 -55 3 -69 15 -69 12 0 15 14 15 69 0 69 -14 101 -43 101 -7 0 -21 2 -32 5
-11 3 -37 -2 -57 -9z"/>
<path d="M1990 513 c-42 -8 -70 -43 -35 -43 8 0 15 5 15 10 0 6 25 10 55 10
43 0 56 -4 65 -19 18 -34 12 -37 -65 -37 -57 1 -78 -3 -85 -14 -16 -25 -11
-59 9 -70 27 -14 124 -13 139 2 9 9 12 9 12 0 0 -7 7 -12 15 -12 11 0 15 12
15 49 0 76 -16 109 -58 121 -38 10 -40 10 -82 3z m105 -113 c15 -24 -18 -41
-74 -38 -49 3 -56 6 -59 26 -3 21 0 22 62 22 36 0 68 -5 71 -10z"/>
<path d="M2288 513 c-38 -6 -58 -39 -58 -95 0 -39 4 -50 24 -63 33 -22 144
-17 160 7 5 9 7 21 2 25 -4 4 -12 0 -17 -10 -7 -12 -23 -17 -59 -17 -64 0 -80
7 -80 36 0 23 2 24 86 24 l86 0 -7 28 c-12 52 -64 77 -137 65z m96 -39 c28
-27 18 -34 -54 -34 -62 0 -70 2 -70 19 0 24 13 29 67 30 25 1 48 -5 57 -15z"/>
<path d="M3345 509 c-16 -5 -36 -16 -42 -26 -20 -26 -16 -87 8 -117 18 -23 27
-26 84 -26 57 0 66 3 84 26 23 29 28 83 11 114 -6 11 -27 24 -48 30 -43 12
-56 12 -97 -1z m113 -31 c7 -7 12 -30 12 -53 0 -53 -13 -65 -75 -65 -62 0 -75
12 -75 65 0 53 13 65 75 65 28 0 56 -5 63 -12z"/>
<path d="M3605 513 c-11 -3 -26 -10 -32 -15 -9 -7 -13 -7 -13 1 0 6 -7 11 -15
11 -12 0 -15 -16 -15 -85 0 -69 3 -85 15 -85 12 0 15 14 15 64 0 76 11 88 72
84 l43 -3 3 -72 c2 -56 6 -73 17 -73 12 0 15 14 15 59 0 72 15 91 70 91 49 0
60 -18 60 -94 0 -45 3 -56 16 -56 15 0 16 9 11 72 -4 43 -12 77 -21 86 -19 19
-99 20 -120 2 -11 -8 -20 -9 -28 -2 -17 13 -68 21 -93 15z"/>
<path d="M3954 510 c-33 -10 -55 -40 -29 -40 7 0 17 5 20 10 9 14 99 12 113
-2 7 -7 12 -20 12 -30 0 -16 -6 -17 -40 -12 -60 10 -109 -3 -122 -31 -9 -21
-8 -29 7 -45 16 -18 29 -20 102 -19 l83 2 0 63 c0 44 -5 68 -17 83 -21 24 -84
34 -129 21z m111 -125 c0 -17 -8 -20 -59 -23 -62 -3 -83 6 -72 33 5 13 18 15
68 13 55 -3 63 -5 63 -23z"/>
<path d="M4438 513 c-28 -4 -55 -29 -44 -40 4 -4 16 -2 26 5 11 7 40 12 65 12
34 0 47 -5 55 -19 19 -37 13 -41 -50 -34 -46 4 -65 2 -85 -11 -30 -20 -34 -61
-6 -76 27 -14 124 -13 139 2 9 9 12 9 12 0 0 -7 7 -12 15 -12 11 0 15 12 15
49 0 76 -16 109 -58 121 -21 5 -41 9 -47 8 -5 0 -22 -3 -37 -5z m107 -113 c15
-24 -18 -41 -74 -38 -49 3 -56 6 -59 26 -3 21 0 22 62 22 36 0 68 -5 71 -10z"/>
<path d="M4665 509 c-16 -5 -36 -16 -42 -26 -20 -26 -16 -87 8 -117 18 -23 27
-26 84 -26 57 0 66 3 84 26 23 29 28 83 11 114 -6 11 -27 24 -48 30 -43 12
-56 12 -97 -1z m113 -31 c7 -7 12 -30 12 -53 0 -53 -13 -65 -75 -65 -62 0 -75
12 -75 65 0 53 13 65 75 65 28 0 56 -5 63 -12z"/>
<path d="M790 442 c0 -54 4 -72 18 -85 21 -19 102 -23 133 -7 13 7 19 7 19 0
0 -5 7 -10 15 -10 12 0 15 16 15 85 0 69 -3 85 -15 85 -12 0 -15 -14 -15 -65
0 -73 -11 -85 -77 -85 -53 0 -63 13 -63 87 0 49 -3 63 -15 63 -12 0 -15 -14
-15 -68z"/>
<path d="M1743 503 c-70 -13 -69 -163 0 -163 22 0 57 -31 57 -49 0 -5 -6 -11
-12 -14 -22 -7 -1 -19 21 -12 24 7 28 43 6 51 -25 10 -17 24 14 24 32 0 61 22
61 46 0 21 -27 17 -33 -6 -4 -17 -14 -20 -59 -20 -63 0 -78 11 -78 60 0 48 15
60 76 60 42 0 54 -4 67 -22 17 -27 32 -19 22 11 -9 31 -77 47 -142 34z"/>
<path d="M2852 439 c3 -55 8 -74 23 -85 23 -17 116 -18 134 -1 11 10 14 10 18
0 13 -36 23 -4 23 72 0 97 -15 115 -22 26 -5 -75 -18 -91 -74 -91 -59 0 -74
18 -74 91 0 48 -3 59 -16 59 -14 0 -16 -11 -12 -71z"/>
<path d="M4193 503 c-70 -13 -69 -163 0 -163 22 0 57 -31 57 -49 0 -5 -6 -11
-12 -14 -22 -7 -1 -19 21 -12 24 7 28 43 6 51 -25 10 -17 24 14 24 32 0 61 22
61 46 0 21 -27 17 -33 -6 -4 -17 -14 -20 -59 -20 -63 0 -78 11 -78 60 0 48 15
60 76 60 42 0 54 -4 67 -22 17 -27 32 -19 22 11 -9 31 -77 47 -142 34z"/>
</g>
</svg> 